<svg width="58" height="59" viewBox="0 0 58 59" fill="none" xmlns="http://www.w3.org/2000/svg">
<path d="M46.5692 13.6185C43.355 12.1201 39.875 11.0326 36.25 10.4043C36.1862 10.4052 36.1254 10.4313 36.0808 10.4768C35.6458 11.2743 35.1383 12.3135 34.8 13.111C30.955 12.5313 27.0449 12.5313 23.2 13.111C22.8617 12.2893 22.3542 11.2743 21.895 10.4768C21.8708 10.4285 21.7983 10.4043 21.7258 10.4043C18.1008 11.0326 14.645 12.1201 11.4067 13.6185C11.3825 13.6185 11.3583 13.6426 11.3342 13.6668C4.76082 23.5026 2.94832 33.0726 3.84249 42.546C3.84249 42.5943 3.86665 42.6426 3.91499 42.6668C8.26499 45.8568 12.4458 47.7901 16.5783 49.071C16.6508 49.0951 16.7233 49.071 16.7475 49.0226C17.7142 47.6935 18.5842 46.2918 19.3333 44.8176C19.3817 44.721 19.3333 44.6243 19.2367 44.6001C17.8592 44.0685 16.5542 43.4401 15.2733 42.7151C15.1767 42.6668 15.1767 42.5218 15.2492 42.4493C15.515 42.256 15.7808 42.0385 16.0467 41.8451C16.095 41.7968 16.1675 41.7968 16.2158 41.821C24.5292 45.6151 33.495 45.6151 41.7117 41.821C41.76 41.7968 41.8325 41.7968 41.8808 41.8451C42.1467 42.0626 42.4125 42.256 42.6783 42.4735C42.775 42.546 42.775 42.691 42.6542 42.7393C41.3975 43.4885 40.0683 44.0926 38.6908 44.6243C38.5942 44.6485 38.57 44.7693 38.5942 44.8418C39.3675 46.316 40.2375 47.7176 41.18 49.0468C41.2525 49.071 41.325 49.0951 41.3975 49.071C45.5542 47.7901 49.735 45.8568 54.085 42.6668C54.1333 42.6426 54.1575 42.5943 54.1575 42.546C55.2208 31.5985 52.3933 22.101 46.6658 13.6668C46.6417 13.6426 46.6175 13.6185 46.5692 13.6185ZM20.59 36.7701C18.1008 36.7701 16.0225 34.4743 16.0225 31.6468C16.0225 28.8193 18.0525 26.5235 20.59 26.5235C23.1517 26.5235 25.1817 28.8435 25.1575 31.6468C25.1575 34.4743 23.1275 36.7701 20.59 36.7701ZM37.4342 36.7701C34.945 36.7701 32.8667 34.4743 32.8667 31.6468C32.8667 28.8193 34.8967 26.5235 37.4342 26.5235C39.9958 26.5235 42.0258 28.8435 42.0017 31.6468C42.0017 34.4743 39.9958 36.7701 37.4342 36.7701Z" fill="#A6A6A6"/>
</svg>
