<svg width="58" height="59" viewBox="0 0 58 59" fill="none" xmlns="http://www.w3.org/2000/svg">
<path d="M28.9637 37.9741L36.7986 46.8819C39.6986 50.1807 41.151 51.8313 42.6711 51.4277C44.1887 51.0265 44.7107 48.8564 45.7523 44.5136L51.5282 20.4243C53.1352 13.7349 53.9376 10.3927 52.1541 8.74211C50.3706 7.09153 47.2797 8.31919 41.0978 10.7721L12.4217 22.1619C7.47716 24.1266 5.00491 25.1078 4.84783 26.7946C4.82933 26.9665 4.82933 27.1399 4.84783 27.3118C5.00008 29.001 7.46749 29.9894 12.4072 31.9687C14.6426 32.8653 15.7615 33.3148 16.5638 34.1727C16.654 34.2694 16.741 34.3693 16.8248 34.4724C17.5643 35.3907 17.8785 36.599 18.5092 39.006L19.691 43.5179C20.3024 45.8621 20.6093 47.0366 21.4141 47.1961C22.2188 47.3556 22.9172 46.3841 24.3165 44.4387L28.9637 37.9741ZM28.9637 37.9741L28.1977 37.1766C27.3228 36.2631 26.8854 35.8088 26.8854 35.2433C26.8854 34.6778 27.3204 34.221 28.1977 33.3099L36.8324 24.3103" stroke="#A6A6A6" stroke-width="4" stroke-linecap="round" stroke-linejoin="round"/>
</svg>
