<svg width="58" height="59" viewBox="0 0 58 59" fill="none" xmlns="http://www.w3.org/2000/svg">
<path d="M40.1167 14.8028C38.4651 12.9166 37.5548 10.4948 37.555 7.98779H30.0875V37.9545C30.0311 39.5765 29.3468 41.1132 28.1791 42.2404C27.0113 43.3676 25.4514 43.9971 23.8283 43.9961C20.3967 43.9961 17.545 41.1928 17.545 37.7128C17.545 33.5561 21.5567 30.4386 25.6892 31.7195V24.0828C17.3517 22.9711 10.0533 29.4478 10.0533 37.7128C10.0533 45.7603 16.7233 51.4878 23.8042 51.4878C31.3925 51.4878 37.555 45.3253 37.555 37.7128V22.512C40.5831 24.6866 44.2186 25.8534 47.9467 25.847V18.3795C47.9467 18.3795 43.4033 18.597 40.1167 14.8028Z" fill="#A6A6A6"/>
</svg>
