<svg width="60" height="60" viewBox="0 0 60 60" fill="none" xmlns="http://www.w3.org/2000/svg">
<path d="M32.5 45V25L41.25 33.75L44.8 30.2L30 15.4L15.2 30.2L18.75 33.75L27.5 25V45H32.5ZM30 5C33.283 5 36.5339 5.64664 39.5671 6.90301C42.6002 8.15938 45.3562 10.0009 47.6777 12.3223C49.9991 14.6438 51.8406 17.3998 53.097 20.4329C54.3534 23.4661 55 26.717 55 30C55 36.6304 52.3661 42.9893 47.6777 47.6777C42.9893 52.3661 36.6304 55 30 55C26.717 55 23.4661 54.3534 20.4329 53.097C17.3998 51.8406 14.6438 49.9991 12.3223 47.6777C7.63392 42.9893 5 36.6304 5 30C5 23.3696 7.63392 17.0107 12.3223 12.3223C17.0107 7.63392 23.3696 5 30 5Z" fill="black"/>
</svg>
