<svg width="20" height="23" viewBox="0 0 20 23" fill="none" xmlns="http://www.w3.org/2000/svg">
<path d="M10 11.5001C13.1562 11.5001 15.7143 8.94207 15.7143 5.78582C15.7143 2.62957 13.1562 0.0715332 10 0.0715332C6.84375 0.0715332 4.28571 2.62957 4.28571 5.78582C4.28571 8.94207 6.84375 11.5001 10 11.5001ZM14 12.9287H13.2545C12.2634 13.384 11.1607 13.643 10 13.643C8.83929 13.643 7.74107 13.384 6.74554 12.9287H6C2.6875 12.9287 0 15.6162 0 18.9287V20.7858C0 21.9689 0.959821 22.9287 2.14286 22.9287H17.8571C19.0402 22.9287 20 21.9689 20 20.7858V18.9287C20 15.6162 17.3125 12.9287 14 12.9287Z" fill="#EFEFEF"/>
</svg>
